<?xml version="1.0" standalone="no"?>
<!DOCTYPE svg PUBLIC "-//W3C//DTD SVG 20010904//EN"
 "http://www.w3.org/TR/2001/REC-SVG-20010904/DTD/svg10.dtd">
<svg version="1.0" xmlns="http://www.w3.org/2000/svg"
 width="1255.000000pt" height="1280.000000pt" viewBox="0 0 1255.000000 1280.000000"
 preserveAspectRatio="xMidYMid meet">
<metadata>
Created by potrace 1.15, written by Peter Selinger 2001-2017
</metadata>
<g transform="translate(0.000000,1280.000000) scale(0.100000,-0.100000)"
fill="#000000" stroke="none">
<path d="M12115 12769 c-121 -15 -480 -60 -799 -99 -318 -39 -723 -89 -900
-110 -318 -40 -1263 -156 -3006 -370 -498 -61 -1047 -129 -1220 -150 -173 -21
-576 -71 -895 -110 -319 -39 -604 -75 -634 -80 -64 -12 -117 -49 -137 -96 -12
-28 -14 -570 -14 -3579 0 -2197 -4 -3545 -9 -3545 -6 0 -47 9 -93 20 -251 61
-659 96 -993 86 -780 -22 -1555 -215 -2220 -550 -230 -117 -357 -194 -528
-322 -336 -252 -546 -520 -633 -810 -23 -76 -27 -108 -28 -224 -1 -113 3 -148
22 -213 88 -306 339 -546 739 -705 535 -213 1257 -267 2050 -152 596 86 1237
283 1762 543 674 333 1104 736 1213 1136 24 89 24 75 53 3836 9 1210 19 2290
23 2399 l7 200 515 88 c283 48 938 160 1455 249 517 88 1280 219 1695 290 415
71 952 163 1193 204 241 41 442 75 447 75 7 0 10 -949 10 -2693 l0 -2693 -95
12 c-674 86 -1417 85 -1990 -2 -967 -146 -1713 -562 -2043 -1138 -285 -497
-203 -959 227 -1281 101 -76 323 -189 467 -239 981 -336 2518 -165 3594 401
584 307 975 699 1096 1099 l27 89 8 675 c4 371 12 1238 18 1925 19 2075 30
3371 42 4573 7 824 7 1152 0 1175 -23 67 -101 119 -176 116 -16 -1 -129 -14
-250 -30z"/>
</g>
</svg>
